<?xml version="1.0" encoding="utf-8"?>
<!-- Generator: Adobe Illustrator 20.0.0, SVG Export Plug-In . SVG Version: 6.00 Build 0)  -->
<svg version="1.1" id="Layer_1" xmlns="http://www.w3.org/2000/svg" xmlns:xlink="http://www.w3.org/1999/xlink" x="0px" y="0px"
	 viewBox="0 0 500 174.6" style="enable-background:new 0 0 500 174.6;" xml:space="preserve">
<style type="text/css">
	.st0{fill:#d9d9d9;}
	.st1{fill:#d9d9d9; opacity: 0.1;}
	.st2{fill:#d9d9d9;}
</style>
<path class="st0" d="M51.6,124.1L5.2,47.4h38.5L68.9,92l25.4-44.6h37.9l-46.4,75.9v46.4H51.6V124.1z"/>
<path class="st0" d="M224.3,151.8l18.9-22.6c12,9.7,25.6,14.8,39.7,14.8c9,0,14.1-3.2,14.1-8.3v-0.5c0-5.1-3.9-7.8-20.5-11.8
	c-26.1-6-46.2-13.4-46.2-38.5v-0.5c0-22.6,18-39.2,47.3-39.2c20.8,0,37.2,5.5,50.3,16.2l-16.9,24c-11.1-7.8-23.3-12-34.2-12
	c-8.3,0-12.2,3.5-12.2,7.8v0.5c0,5.5,4.2,8.1,21.2,11.8c28.2,6.2,45.7,15.2,45.7,38.1v0.5c0,24.9-19.9,39.9-49.4,39.9
	C260.1,171.9,239.3,165.2,224.3,151.8z"/>
<path class="st0" d="M338.3,47.4h33.9v45.7h43.6V47.4h33.9v122.3h-33.9v-46.4h-43.6v46.4h-33.9V47.4z"/>
<path class="st0" d="M459.7,47.4h34.2v122.3h-34.2V47.4z"/>
<circle class="st1" cx="171.9" cy="96.4" r="14.1"/>
<path class="st0" d="M213.9,151.3v20.8h-83.6v-20.8H213.9z"/>
<rect x="374.1" y="47.4" class="st1" width="39.9" height="43.9"/>
<rect x="374.1" y="125.5" class="st1" width="39.9" height="44.6"/>
<polygon class="st1" points="45.8,47.4 92,47.4 68.9,88.1 "/>
<path class="st0" d="M171.9,80.9c8.5,0,15.7,6.9,15.7,15.7s-6.9,15.7-15.7,15.7c-8.5,0-15.7-6.9-15.7-15.7S163.3,80.9,171.9,80.9
	 M171.9,46.3c-27.7,0-50.3,22.4-50.3,50.3s22.4,50.3,50.3,50.3c27.7,0,50.3-22.4,50.3-50.3S199.8,46.3,171.9,46.3L171.9,46.3z"/>
<g>
	<path class="st2" d="M21.4,28.3c0,0.2,0,0.2-0.2,0.2h-0.9c-0.2,0-0.2,0-0.2-0.2V17.7H6.6v10.6c0,0.2,0,0.2-0.2,0.2H5.4
		c-0.2,0-0.2,0-0.2-0.2V6.4c0-0.2,0-0.2,0.2-0.2h0.9c0.2,0,0.2,0,0.2,0.2v9.9H20V6.4c0-0.2,0-0.2,0.2-0.2h0.9c0.2,0,0.2,0,0.2,0.2
		V28.3z"/>
	<path class="st2" d="M56.2,22.1l-2.5,6.2c0,0.2-0.2,0.2-0.2,0.2h-0.9c-0.2,0-0.2-0.2-0.2-0.2L59.5,11c0.7-1.4,1.2-3.2,1.6-4.6
		c0-0.2,0.2-0.2,0.2-0.2h0.9c0.2,0,0.2,0,0.2,0.2c0.5,1.4,0.9,3,1.6,4.6l7.2,17.3c0,0.2,0,0.2-0.2,0.2h-0.9c-0.2,0-0.2,0-0.2-0.2
		l-2.5-6.2H56.2z M66.8,20.7l-3.7-8.8c-0.5-1.2-0.9-2.5-1.2-3.5c0-0.2-0.2-0.2-0.5,0c-0.2,0.9-0.7,2.3-1.2,3.5l-3.7,8.8H66.8z"/>
	<path class="st2" d="M103.5,28.3c0,0.2,0,0.2-0.2,0.2h-0.9c-0.2,0-0.2,0-0.2-0.2V6.4c0-0.2,0-0.2,0.2-0.2h0.9c0.2,0,0.2,0,0.2,0.2
		V28.3z"/>
	<path class="st2" d="M144.6,6.1c4.2,0,6.7,2.1,6.7,5.8c0,3-1.8,4.8-5.1,6c-0.5,0.2-0.5,0.2,0,0.5c1.6,0.7,2.8,2.3,3.5,4.2l2.3,5.8
		c0,0.2,0,0.2-0.2,0.2h-0.9c-0.2,0-0.2,0-0.2-0.2l-2.3-5.3c-1.4-3.2-3.5-4.4-6.7-4.4h-4.4v9.7c0,0.2,0,0.2-0.2,0.2h-0.9
		c-0.2,0-0.2,0-0.2-0.2V6.4c0-0.2,0-0.2,0.2-0.2H144.6z M142.3,17.2c4.6,0,7.4-1.8,7.4-5.3c0-2.8-1.8-4.6-5.1-4.6h-7.4v9.9H142.3z"
		/>
	<path class="st2" d="M220.8,16.7c-3.2-1.4-4.6-3-4.6-5.5c0-3.5,2.8-5.5,6.7-5.5c1.6,0,3.2,0.2,4.8,0.7l1.6,0.5
		c0.2,0,0.2,0.2,0.2,0.2l-0.2,0.7c0,0.2-0.2,0.2-0.2,0.2l-1.6-0.2c-1.4-0.5-2.8-0.7-4.4-0.7c-3.2,0-5.3,1.6-5.3,4.2
		c0,1.6,0.5,3.2,3.7,4.4l4.8,1.8c2.8,0.9,4.6,2.5,4.6,5.3c0,3.7-3.2,6-7.6,6c-2.5,0-4.4-0.5-6-1.2l-1.2-0.5c-0.2,0-0.2-0.2-0.2-0.2
		l0.2-0.7c0-0.2,0.2-0.2,0.5-0.2l1.2,0.5c1.4,0.5,3,0.9,5.5,0.9c3.5,0,6.2-1.6,6.2-4.6c0-2.1-1.8-3.5-3.7-4.2L220.8,16.7z"/>
	<path class="st2" d="M277.4,7c0,0.2,0,0.2-0.2,0.2h-7.6v20.8c0,0.2,0,0.2-0.2,0.2h-0.9c-0.2,0-0.2,0-0.2-0.2V7.3h-7.6
		c-0.2,0-0.2,0-0.2-0.2V6.4c0-0.2,0-0.2,0.2-0.2h16.9c0.2,0,0.2,0,0.2,0.2V7H277.4z"/>
	<path class="st2" d="M318.5,15.4c-1.6,2.3-2.3,3.7-2.3,6.5v6.5c0,0.2,0,0.2-0.2,0.2H315c-0.2,0-0.2,0-0.2-0.2v-6.5
		c0-2.5-0.9-4.2-2.3-6.5l-6-9c0-0.2,0-0.2,0.2-0.2h1.2c0.2,0,0.2,0,0.2,0.2l5.5,8.3c0.7,0.9,1.2,1.8,1.8,3.5c0,0.2,0.2,0.2,0.5,0
		c0.7-1.6,1.2-2.3,1.8-3.5l5.5-8.3l0.2-0.2h1.2c0.2,0,0.2,0.2,0.2,0.2L318.5,15.4z"/>
	<path class="st2" d="M368.3,27.1c0.2,0,0.2,0,0.2,0.2v0.7c0,0.2,0,0.2-0.2,0.2h-12.7c-0.2,0-0.2,0-0.2-0.2V6.1c0-0.2,0-0.2,0.2-0.2
		h0.9c0.2,0,0.2,0,0.2,0.2v20.8h11.5V27.1z"/>
	<path class="st2" d="M401.1,28.3c0,0.2,0,0.2-0.2,0.2h-0.9c-0.2,0-0.2,0-0.2-0.2V6.4c0-0.2,0-0.2,0.2-0.2h0.9c0.2,0,0.2,0,0.2,0.2
		V28.3z"/>
	<path class="st2" d="M437.3,16.7c-3.2-1.4-4.6-3-4.6-5.5c0-3.5,2.8-5.5,6.7-5.5c1.6,0,3.2,0.2,4.8,0.7l1.6,0.5
		c0.2,0,0.2,0.2,0.2,0.2l-0.2,0.7c0,0.2-0.2,0.2-0.2,0.2l-1.4-0.5c-1.4-0.5-2.8-0.7-4.4-0.7c-3.2,0-5.3,1.6-5.3,4.2
		c0,1.6,0.5,3.2,3.7,4.4l4.8,1.8c2.8,0.9,4.6,2.5,4.6,5.3c0,3.7-3.2,6-7.6,6c-2.5,0-4.4-0.5-6-1.2l-1.2-0.5c-0.2,0-0.2-0.2-0.2-0.2
		L433,26c0-0.2,0.2-0.2,0.5-0.2l1.2,0.5c1.4,0.5,3,0.9,5.5,0.9c3.5,0,6.2-1.6,6.2-4.6c0-2.1-1.8-3.5-3.7-4.2L437.3,16.7z"/>
	<path class="st2" d="M493.9,7c0,0.2,0,0.2-0.2,0.2H486v20.8c0,0.2,0,0.2-0.2,0.2h-0.9c-0.2,0-0.2,0-0.2-0.2V7.3h-7.8
		c-0.2,0-0.2,0-0.2-0.2V6.4c0-0.2,0-0.2,0.2-0.2h16.9c0.2,0,0.2,0,0.2,0.2L493.9,7L493.9,7z"/>
</g>
</svg>
