<?xml version="1.0" encoding="utf-8"?>
<!-- Generator: Adobe Illustrator 20.0.0, SVG Export Plug-In . SVG Version: 6.00 Build 0)  -->
<svg version="1.1" xmlns="http://www.w3.org/2000/svg" xmlns:xlink="http://www.w3.org/1999/xlink" x="0px" y="0px"
	 viewBox="0 0 800 800" style="enable-background:new 0 0 800 800;" xml:space="preserve">
<style type="text/css">
	.st0{fill-rule:evenodd;clip-rule:evenodd;fill:#231F20;}
	.st1{fill-rule:evenodd;clip-rule:evenodd;fill:#FFFFFF;}
	.st2{fill:#FFFFFF;}
</style>
<g id="Layer_1">
</g>
<g id="Layer_2">
	<g>
		<path class="st0" d="M381.2,362.2c-5.4-6.9-14.1-9.8-22.6-7.4c-8.2,1.9-14,10.4-16,18c-4,14.5-3.8,31.9-1.7,47.2
			c1.7,9.4,5.1,20.2,15.1,24.1c7.3,2.9,17.1,1.9,22.7-4c9.3-9.8,10.2-23.4,10.9-36.7c0.3-13.7-0.5-27-6.4-38.3L381.2,362.2
			L381.2,362.2z M372.7,422.2c-1.1,4-2.1,9.3-6.9,10.4c-2.4,0.3-4.9-0.1-6.3-2.2c-3.6-5.2-3.7-11.8-4.1-18.2
			c-0.6-13.7-1.5-28.5,2.8-40.8c1-2.1,3.2-4.1,5.6-4.3c2.9-0.3,5.4,1,6.6,3.4c2.8,5.1,2.9,11.3,3.6,17.3
			C374.7,399.3,374.5,411.1,372.7,422.2L372.7,422.2z"/>
		<path class="st0" d="M197.6,354.2c-8.2,0.2-15.8,5.9-18.9,13.3c-4,9.6-5.4,20.4-5.5,31.5c0.4,14.1,0.3,28.5,8.4,39.3
			c4.6,6.1,11.4,8.2,18.8,7.4c7.2-0.5,14-5.9,17-12.4c4.8-10.4,5.8-22.6,5.8-34.8c-0.3-12.1-1-24.1-6.6-34
			C212.5,357.6,205.5,353.8,197.6,354.2L197.6,354.2z M204.8,427.6c-0.9,2.4-3.1,5.3-5.9,5.5c-2,0.5-4-0.3-5.4-1.6
			c-3-2.9-3.2-6.7-4-10.4c-1.7-14.4-1.5-29.7,0.8-43.7c1-3.9,1.9-9.1,6.7-10.1c3.2-0.8,6,1.4,7.3,4.1c3.6,8.4,3.3,18.4,3.4,28.2
			C207.5,409.1,207.7,418.9,204.8,427.6L204.8,427.6z"/>
		<path class="st0" d="M262.5,402.1c-6.7-7.2-18.1-10.9-20.5-21.1c-0.5-5-0.9-11.2,4.1-13.7c1.3-0.7,3.2-0.4,4.5,0.1
			c2.3,1.4,3.4,3.9,3.8,6.4c0.8,3.3,0.3,7.3,0.6,10.8h14.1c0.5-7.1-0.1-14.3-3.2-20.4c-1.8-3.4-5.1-6.4-8.6-8
			c-6.6-3.3-16.2-2.3-21.9,2.4c-7.8,6.5-9.9,17.3-7.7,26.9c2.6,11.2,14.7,17.3,22.6,25c4.4,3.8,5.9,9,5.2,14.7
			c-0.4,3.5-2,7.4-5.8,8.3c-2.1,0.4-4.1,0-5.5-1.3c-4.6-4.8-3.6-12.3-3.6-18.9c0,0-9.8-0.1-14.6,0c-0.7,8.9,0,18.2,5.5,25.3
			c5.5,6.3,13.7,8.1,21.8,6.6c7.5-1.3,14.4-7.9,16-15.4C271.7,420.1,270.1,409,262.5,402.1L262.5,402.1z"/>
		<path class="st0" d="M463.9,354.5c-7.5,0.4-14.3,6.5-17,13.3c-5.1,12.4-5.4,27.2-4.8,41.5c1.2,13.6,2.6,29.4,17,35.4
			c7.4,2.6,16.8,1.4,22.4-4.5c8.2-9.1,9.6-21.1,10.5-33.3c0.3-13.7-0.2-27.7-5.4-39.4C482.9,358.8,473.6,352.8,463.9,354.5
			L463.9,354.5z M475,424c-1,3.3-2.2,7.3-5.9,8.6c-3,0.9-5.8-0.2-7.5-2.5c-2.4-3-2.4-6.8-3.2-10.5c-2-13.5-1.5-28,0.1-41.7
			c0.7-3.9,1.9-7.9,5.6-10.1c2.4-1.1,5.6-0.6,7.4,1.4c3.7,4.9,3.9,11.2,4.7,17.4C477.2,398.9,477,412,475,424L475,424z"/>
		<path class="st0" d="M169.8,408.3H155c-0.5,7.7,0.1,15.8-3.3,22.2c-1.2,2.2-3.5,2.9-5.8,2.6c-2.8-0.7-4.2-3.7-5.1-6.1
			c-3.6-14-3.4-30.9-2.1-45.7c0.6-4.7,1.1-9.3,4.5-12.8c1.4-0.9,3.5-1.3,5.1-0.6c3.2,1.5,4.2,4.9,4.8,7.9c0.8,4.4,0.8,9.2,1.3,13.7
			h14.7c0.1-9.1-1.2-18-5.4-25.4c-4.6-7.8-13.5-11.2-22.3-9c-10.3,2.1-15,13-16.8,22c0,1-0.7,2.2-0.2,3c-0.1,0.1-0.4,0-0.4,0.3
			c-1.3,7.8-1.3,16.2-1.2,24.1c0.9,12.3,1.4,24.8,8.6,34.5c5.4,6.8,14.5,8.4,22.5,6.1c12.9-4.8,15.4-18.8,16.1-31.1
			C169.9,412,170.5,410.1,169.8,408.3L169.8,408.3z"/>
		<path class="st0" d="M304.7,407.1l-0.3,0.6c-3.6-17-7.1-34.3-10.4-51.4h-20.3v87.4h13.4v-60.1l7.5,37.4c1.6,7.5,4.6,22.7,4.6,22.7
			h10.7l12.1-57.5v57.6h13.1v-87.5h-19.7L304.7,407.1L304.7,407.1z"/>
		<path class="st0" d="M419.7,356.3l-25.8,0.1v87.4h15v-30.7h8.6c6.1-0.2,11.7-2.1,15.9-6.9c8.6-8.9,9.2-24,5.2-35.3
			C435.4,363.4,428,356.6,419.7,356.3L419.7,356.3z M422.1,397.4c-3.2,3.9-8.1,3.7-12.8,3.7v-32c0.2-0.3-0.1-0.8,0.4-0.7
			c5.5-0.5,11.3,0.4,13.8,5.8C426.6,380.9,426.9,391.3,422.1,397.4L422.1,397.4z"/>
		<polygon class="st0" points="512.7,356.3 497.8,356.3 497.8,443.7 527.8,443.7 527.8,432 512.7,432 512.7,356.3 		"/>
		<path class="st0" d="M531.5,443.8c4.8,0,14.7,0,14.7,0v-87.6h-14.7V443.8L531.5,443.8z"/>
		<polygon class="st0" points="588.6,356.3 548.7,356.3 548.7,368.9 561.6,368.9 561.6,443.8 575.9,443.8 575.9,368.7 588.6,368.7 
			588.6,356.3 		"/>
		<path class="st0" d="M596.4,356.3l-14.3,87.6h14.5l4-24.4h13l4.2,24.4h13.8l-14.7-87.6H596.4L596.4,356.3z M602.2,407.3l4.6-31.7
			l0.1-0.4c1.7,10.6,4.8,32.1,4.8,32.1H602.2L602.2,407.3z"/>
		<path class="st0" d="M664.9,356.3v53.5c-0.1-0.1-13.9-53.5-13.9-53.5h-16.4v87.5H647v-55.2c0.6,1.8,14.5,55.2,14.5,55.2h15.7
			v-87.6H664.9L664.9,356.3z"/>
	</g>
</g>
</svg>
