<?xml version="1.0" encoding="utf-8"?>
<!-- Generator: Adobe Illustrator 20.0.0, SVG Export Plug-In . SVG Version: 6.00 Build 0)  -->
<svg version="1.1" xmlns="http://www.w3.org/2000/svg" xmlns:xlink="http://www.w3.org/1999/xlink" x="0px" y="0px"
	 viewBox="0 0 800 800" style="enable-background:new 0 0 800 800;" xml:space="preserve">
<style type="text/css">
	.st0{fill-rule:evenodd;clip-rule:evenodd;fill:#231F20;}
	.st1{fill-rule:evenodd;clip-rule:evenodd;fill:#FFFFFF;}
	.st2{fill:#FFFFFF;}
</style>
<g id="Layer_1">
</g>
<g id="Layer_2">
	<g>
		<path class="st0" d="M161.9,471h-11.1v2.1h61.6v-38.9h-1.9c0,0-0.1,22.4-7.4,29.8c-6.3,6.3-12.9,6.9-23.7,6.9v-71.5
			c0,0,7.5-0.5,11.1,3.1c5.7,5.7,6.3,13,6.3,23.1h2v-54.8h-2c0,10.1-0.6,17.4-6.3,23.1c-3.6,3.6-11.1,3.1-11.1,3.1v-67.9
			c10.8,0,16,0.6,22.2,6.9c7.4,7.4,7.4,29.8,7.4,29.8h1.9v-38.9h-60.1v2.1h11.1V471L161.9,471z"/>
		<path class="st0" d="M325.6,329.1v141.8c10.8,0,17.4-0.6,23.7-6.9c7.4-7.4,7.4-29.8,7.4-29.8h1.9v38.9h-61.6V471h11.1V329h-11.1
			v-2.1h38.7v2.2L325.6,329.1L325.6,329.1z"/>
		<path class="st0" d="M470.8,329.1v141.8c10.8,0,17.4-0.6,23.7-6.9c7.4-7.4,7.4-29.8,7.4-29.8h1.9v38.9h-61.6V471h11.1V329h-11.1
			v-2.1h38.7v2.2L470.8,329.1L470.8,329.1z"/>
		<path class="st0" d="M598.8,471h-11.1v2.1h61.6v-38.9h-1.9c0,0-0.1,22.4-7.4,29.8c-6.3,6.3-12.9,6.9-23.7,6.9v-71.5
			c0,0,7.5-0.5,11.1,3.1c5.7,5.7,6.3,13,6.3,23.1h2v-54.8h-2c0,10.1-0.6,17.4-6.3,23.1c-3.6,3.6-11.1,3.1-11.1,3.1v-67.9
			c10.8,0,16,0.6,22.2,6.9c7.4,7.4,7.4,29.8,7.4,29.8h1.9v-38.9h-60.1v2.1h11.1V471L598.8,471z"/>
		<path class="st1" d="M640.6,467c0-1.9,1.6-3.5,3.5-3.5c1.9,0,3.5,1.6,3.5,3.5c0,1.9-1.6,3.5-3.5,3.5
			C642.1,470.5,640.6,468.9,640.6,467L640.6,467z M647.1,467c0-1.7-1.4-3.1-3.1-3.1c-1.7,0-3.1,1.4-3.1,3.1c0,1.7,1.4,3.1,3.1,3.1
			C645.8,470.1,647.1,468.7,647.1,467L647.1,467z M645.8,469h-0.6l-1.1-1.8h-0.9v1.8h-0.4v-3.8h1.7c1,0,1.4,0.4,1.4,1
			c0,0.8-0.5,1-1.2,1.1L645.8,469L645.8,469z M644,466.8c0.5,0,1.4,0.1,1.4-0.6c0-0.5-0.6-0.6-1-0.6h-1.1v1.2H644L644,466.8z"/>
	</g>
</g>
</svg>
