<?xml version="1.0" encoding="utf-8"?>
<!-- Generator: Adobe Illustrator 20.0.0, SVG Export Plug-In . SVG Version: 6.00 Build 0)  -->
<svg version="1.1" xmlns="http://www.w3.org/2000/svg" xmlns:xlink="http://www.w3.org/1999/xlink" x="0px" y="0px"
	 viewBox="0 0 800 800" style="enable-background:new 0 0 800 800;" xml:space="preserve">
<style type="text/css">
	.st0{fill-rule:evenodd;clip-rule:evenodd;fill:#231F20;}
	.st1{fill-rule:evenodd;clip-rule:evenodd;fill:#FFFFFF;}
	.st2{fill:#FFFFFF;}
</style>
<g id="Layer_1">
</g>
<g id="Layer_2">
	<g>
		<path d="M657.3,418.8c-2.7,2.1-7.4,6.1-9.9,8.7l-9.2-8.2v-0.5c1.2-0.3,1.4-1.5,1.4-2.8v-22.3c-2.1-1.5-6.4-5.3-8.8-7.5l-3,2.6V416
			l2.3,2c0.4,0.4,1,0.9,1.8,0.9c1,0,1.7-0.3,2.6-1.2l0.9,1c-2.5,1.8-7.1,5.7-10,8.7l-9.2-8.3v-0.4c0.9-0.3,1.4-0.9,1.4-2.4v-22.6
			c-2.2-1.7-6.8-5.7-8.8-7.5l-3,2.5V416l2.1,1.9c0.7,0.6,1.3,1.1,2,1.1c0.9,0,1.5-0.2,2.5-1.2l0.9,1c-2.9,2.3-7.1,6-10,8.7l-9.2-8.1
			v-0.5c1-0.3,1.4-1.1,1.4-2.6v-27l-2.4-1.9c-0.6-0.5-1.2-0.8-1.7-0.8c-0.7,0-1.6,0.4-2.5,1.3l-0.9-1.2c2.7-1.8,7-5.8,10.1-8.6
			l8.1,7.5l8.6-7.5c4,3.4,8.8,7.3,11.6,9l10.3-9c3.8,3.1,10.8,8.7,14.4,10.9v0.4c-1,0.3-1.7,1.1-1.7,2.6v23.9l1.9,1.8
			c0.6,0.6,1.4,1.3,2.2,1.3c1,0,1.8-0.5,2.6-1.3L657.3,418.8z"/>
		<path d="M589.6,366.5l-3.4,3.1c-2.7,2.5-5,3.6-7,3.6c-1.6,0-3.2-0.8-4.8-2.2c-0.6-0.5-1.1-1-1.9-1c-0.9,0-1.7,0.4-2.5,1.2l-0.9-1
			l10.1-8.7l5.1,4.5c0.6,0.5,1.4,0.8,2.1,0.8c0.9,0,1.8-0.5,2.4-1.2L589.6,366.5z"/>
		<path d="M591.7,418.8c-2.6,2.1-7.5,6.4-10,8.8l-9.2-8.2v-0.5c1-0.3,1.4-1.2,1.4-2.4v-27.3l-2.1-1.7c-0.6-0.5-1-0.8-1.8-0.8
			c-0.9,0-1.9,0.4-2.6,1.2l-0.9-1.1c2.5-1.8,7.1-5.7,10.1-8.7l9.2,7.9v0.4c-0.8,0.3-1.7,0.9-1.7,2.5V416l2.4,2.1
			c0.6,0.5,1.3,0.8,2,0.8c0.9,0,1.6-0.4,2.4-1.2L591.7,418.8z"/>
		<path d="M414.3,418.8c-2.5,1.9-6.9,5.7-10,8.8l-9.2-8.3v-0.5c0.8-0.3,1.4-1.2,1.4-2.6v-43.4l-2.5-1.9c-0.5-0.4-1.1-0.8-1.5-0.8
			c-1.1,0-1.8,0.7-2.5,1.4l-1-1.1c3.1-2.3,7.5-6.1,10.2-8.9l9.2,7.9v0.3c-0.9,0.3-1.7,1.5-1.7,3V416l2.5,2.2c0.6,0.5,1.3,0.8,2,0.8
			c0.7,0,1.7-0.6,2.3-1.2L414.3,418.8z"/>
		<path d="M315.1,418.8c-2.7,2-7.7,6.2-10,8.7l-9.2-8.1v-0.5c0.9-0.3,1.4-1.1,1.4-3.1v-22c-2.3-1.7-6.6-5.4-8.8-7.5l-3,2.5V416
			l2.7,2.4c1.1,0.9,2.7,0.7,4.1-0.5l0.8,0.9c-2.8,2.1-7.3,6.1-10,8.7l-9.2-8.1v-0.5c0.9-0.4,1.4-1.2,1.4-2.5v-27.1l-2.5-1.8
			c-0.6-0.4-0.9-0.8-1.4-0.8c-1.2,0-1.9,0.6-2.6,1.2l-1-1.1c2.4-1.7,6.5-5.2,10.1-8.6l8.1,7.5l8.6-7.5c3,2.6,10.6,8.4,14.4,10.9v0.4
			c-1.3,0.4-1.7,1.4-1.7,1.9V416l2.9,2.6c0.5,0.5,2.1,0.7,3.8-0.9L315.1,418.8z"/>
		<path d="M725.5,415.3c-6.3,3-14.2,8.1-18.8,12.2c-2.6-2.1-6.1-4.3-10.2-4.3c-3.8,0-5,1.3-5,2.6c0,0.8,1.2,0.7,1.2,1.9
			c0,0.5-0.6,1.2-1.3,1.2c-0.9,0-1.8-0.9-1.8-2.5c0-2.5,1.5-5.8,6.1-10.9l7.9-8.7l-10.1-5.2V401c0.8-0.2,1.1-0.9,1.1-1.9v-7.5
			c0-0.8-0.5-1.6-1.1-2v-0.6c6.5-3.2,14-7.4,18.3-11c1.1,1.3,4.3,3.1,7.5,3.1c2.7,0,3.1-0.8,3.1-1.8c0-0.5-0.4-0.7-0.4-1.1
			c0-0.7,0.4-1,0.9-1c0.8,0,1.4,0.6,1.4,2.1c0,4-3.8,9-10.1,9c-4.5,0-7.2-1.4-9.1-3.6l-0.4,0.3V396l6.2,3l2.6-2.6l11.9,6v0.5
			c-0.6,0.3-1,0.9-1,1.6v8.6c0,1.1,0.5,1.5,1,1.8V415.3z M714.3,419.8v-12.6l-5.8-2.7l-12.3,13.1l0.2,0.1c2-1.1,4.9-1.6,8.9-1.6
			c3.1,0,6.9,1.8,8.9,3.9L714.3,419.8z"/>
		<path d="M690.8,394.2L671,406.6v7.8c2.5,0.9,7.8,3.6,10.3,5.1l5-4.7c0.3-1.4,0.8-2.9,2.3-2.9c0.7,0,1.1,0.6,1.1,1.2
			c0,0.7-0.4,1.3-0.8,1.6l-12.9,12.8c-3.7-2.4-12.2-6.8-16.5-8.6v-0.5c0.8-0.3,1.3-1.2,1.3-2.2v-24.4c0-1.1-0.5-2-1.4-2.2V389
			c5.7-2.7,13.4-7.1,19.4-10.9C682.4,383.3,687.5,390.2,690.8,394.2z M681.2,398c-2.7-3.4-7.4-9.6-10-13.6l-0.2,0.1v20L681.2,398z"
			/>
		<path d="M567.9,363.5c0,6.7-4.5,9.9-10,10.8v42.5c3.1-2.2,5.6-5.2,6.9-8.4c0.1-0.3,0.2-0.6,0.2-0.8c0-0.4-0.4-0.7-0.4-1.3
			c0-0.6,0.1-1.3,0.9-1.3c0.7,0,1.2,0.6,1.2,1.3c0,10.2-7.4,23.1-28.1,23.1c-14.8,0-27-11.2-27-26.8c0-20.8,17.3-28.2,29-30.8
			c-3.9-0.7-9.4-1.6-14.5-1.6c-9.8,0-12.8,4.6-13.6,8l-1-0.5c0.2-4.7,4.3-17.6,17-17.6c12.4,0,20.4,5.2,30.1,5.2
			c6.4,0,7.6-2.9,8.1-5.8l1.1,0.4C567.8,360.3,567.9,362.7,567.9,363.5z M556.3,417.9v-43.4c-0.5,0-1,0.1-1.5,0.1
			c-2,0-4-0.4-6.4-0.8c-3.1,1.5-5.8,4.7-5.8,9.7c0,9.3,5.3,11.5,5.3,21c0,7.5-6.3,12.9-11.4,15.4c2.8,1,5.8,1.4,9,1.4
			C549,421.3,553.9,419.5,556.3,417.9z M546.1,373.2l-1.7-0.3c-10.3,1.9-22.2,11-22.2,26.1c0,9.9,5.3,16.7,12.7,20.2
			c2.2-1.6,4.7-4.4,4.7-9.3c0-8.8-5.7-13.6-5.7-21.6C533.9,382.2,537.8,376.9,546.1,373.2z"/>
		<path d="M481,415.3c-6.3,3-14.2,8.1-18.8,12.2c-2.6-2.1-6.1-4.3-10.2-4.3c-3.8,0-5,1.3-5,2.6c0,0.8,1.2,0.7,1.2,1.9
			c0,0.5-0.6,1.2-1.3,1.2c-0.9,0-1.8-0.9-1.8-2.5c0-2.5,1.5-5.8,6.1-10.9l7.9-8.7l-10.1-5.2v-0.6c0.8-0.2,1.1-0.8,1.1-1.8v-7.5
			c0-1-0.3-1.6-1.1-2v-0.6c6.5-3.2,14-7.4,18.3-11c1.1,1.3,4.3,3.1,7.5,3.1c2.7,0,3.1-0.8,3.1-1.8c0-0.5-0.4-0.8-0.4-1.1
			c0-0.7,0.4-1,0.9-1c0.8,0,1.4,0.6,1.4,2.1c0,4-3.9,9-10.1,9c-4.5,0-7.2-1.4-9.1-3.6l-0.4,0.3V396l6.2,3l2.6-2.6l11.9,6v0.6
			c-0.6,0.3-1,0.9-1,1.6v8.4c0,1.1,0.4,1.6,1,1.8V415.3z M469.8,419.8v-12.6l-5.8-2.7l-12.3,13.1l0.2,0.1c2-1.1,4.9-1.6,8.9-1.6
			c3.1,0,6.9,1.8,8.9,3.9L469.8,419.8z"/>
		<path d="M446.8,394.2l-19.7,12.5v7.8c2.5,0.9,7.8,3.6,10.3,5.1l5-4.7c0.3-1.4,0.8-2.9,2.3-2.9c0.7,0,1.1,0.6,1.1,1.2
			c0,0.7-0.3,1.3-0.7,1.6l-13,12.8c-3.7-2.4-12.2-6.8-16.5-8.6v-0.5c0.7-0.3,1.3-1.2,1.3-2.2v-24.4c0-1.1-0.5-2-1.4-2.2V389
			c5.7-2.7,13.4-7.1,19.4-10.9C438.4,383.3,443.5,390.2,446.8,394.2z M437.2,398c-2.7-3.4-7.4-9.6-10-13.6l-0.2,0.1v20L437.2,398z"
			/>
		<path d="M390.8,394.2l-19.8,12.5v7.8c2.5,0.9,7.8,3.6,10.3,5.1l5-4.7c0.3-1.5,0.8-2.9,2.4-2.9c0.7,0,1,0.6,1,1.2
			c0,0.7-0.3,1.3-0.7,1.6l-13,12.9c-3.7-2.4-12.2-6.8-16.5-8.7v-0.5c0.7-0.3,1.3-1.2,1.3-2.2v-24.4c0-1.1-0.5-2-1.4-2.2V389
			c5.7-2.7,13.5-7.1,19.5-10.9C382.4,383.3,387.5,390.2,390.8,394.2z M381.1,398c-2.7-3.4-7.4-9.6-10-13.6l-0.2,0.1v20L381.1,398z"
			/>
		<path d="M355.8,424c-0.3,10.6-5.2,18.4-15.1,18.4c-7.8,0-12.6-4.1-19.7-4.1c-4.1,0-6.4,1.4-7.5,2.8l-1.1-0.9
			c1.5-7.3,6.4-12,13.4-12c7.7,0,12.5,4.9,20.6,4.9c3.7,0,6-1.8,7-4.6l-0.1-0.2c-1.2,0.4-2.4,0.6-3.6,0.6c-4.2,0-8-2.8-8.7-7.6
			c-2,1.4-6,4.5-8,6.2c-4.9-3.2-12.4-7.2-16.3-8.9v-0.5c0.8-0.3,1.4-1.1,1.4-2v-24.2c0-1.4-0.5-2.2-1.5-2.4v-0.4
			c6.9-2.6,14.4-7.2,19.4-11c4.3,3.4,11.4,8.3,15.9,10.9v0.4c-0.6,0.3-1.2,0.9-1.2,2.4v26.6c0,3.3,0.8,5.1,3.2,5.1
			c0.4,0,0.8,0,1.3-0.1L355.8,424z M340.7,419.7v-25.9c-2.7-1.8-8.9-6.2-12-8.7l-0.4,0.3V414c3.4,1.7,9.3,5.3,11.2,6.6L340.7,419.7z
			"/>
		<path d="M271.8,419.6c-2.9,4.9-5.8,8.6-10.1,8.6c-3.4,0-5.8-1.9-7-5.6l-5.6-16.3h-21.7l-3.1,9.1c3.5,0.3,6.7,2.4,7.5,2.4
			c1,0,1.8-0.8,2.9-2.5l1.4,0.8l-7.2,11.5c-2-1.7-5.1-3.5-9.2-3.5c-5.6,0-9.1,1.5-11.7,3.5l-0.9-0.3c1.2-6.1,6.3-11.3,15-12
			l15.1-44.3l-0.5-1.5c-1-3.1-3.1-4.8-5.3-4.8c-2.3,0-3.5,1.1-4.3,1.9l-0.7-0.6c0.6-3.5,3.8-7.3,8.7-7.3c4.1,0,6.9,2,8.4,4.4h0.2
			c0.7-1.9,2-3.4,3.5-3.6l0.3,0.4c-0.5,0.4-1.2,2.1-1.2,3.9c0,0.9,0.2,1.8,0.5,2.7l17.8,52.6c0.4,1.2,1.3,1.9,2.3,1.9
			c1.4,0,2.3-0.8,3.5-2.5L271.8,419.6z M247,399.8l-8.6-25.4h-0.2l-8.6,25.4H247z"/>
		<path d="M187.6,415.3c-6.3,3-14.2,8.1-18.8,12.2c-2.6-2.1-6.1-4.3-10.2-4.3c-3.8,0-5,1.3-5,2.6c0,0.8,1.2,0.7,1.2,1.9
			c0,0.5-0.6,1.2-1.3,1.2c-0.9,0-1.8-0.9-1.8-2.5c0-2.5,1.5-5.8,6.1-10.9l7.9-8.7l-10.1-5.2v-0.6c0.8-0.2,1.1-0.8,1.1-1.8v-7.5
			c0-0.8-0.5-1.6-1.1-2v-0.6c6.5-3.2,14-7.4,18.3-11c1.1,1.3,4.3,3.1,7.5,3.1c2.7,0,3.1-0.8,3.1-1.8c0-0.5-0.4-0.8-0.4-1.1
			c0-0.7,0.4-1,0.9-1c0.8,0,1.4,0.6,1.4,2.1c0,4-3.3,9-10.1,9c-4.5,0-7.2-1.4-9.1-3.6l-0.4,0.3V396l6.2,3l2.6-2.6l11.9,6v0.7
			c-0.6,0.3-1,0.9-1,1.6v8.3c0,1.1,0.5,1.5,1,1.8V415.3z M176.4,419.8v-12.6l-5.8-2.7l-12.3,13.1l0.2,0.1c2-1.1,4.9-1.6,8.9-1.6
			c3.1,0,6.9,1.8,8.9,3.9L176.4,419.8z"/>
		<path d="M150.1,416.5c-5.6,2.3-14.8,7.5-19.2,11c-5-3.3-11.6-8.3-16.2-10.9V416c1-0.3,1.3-1.3,1.3-2.5v-20.9c0-1.9-0.4-2.7-1.4-3
			v-0.5c6.6-2.6,13.3-6.4,19.2-11c4.2,3.3,11.7,8.2,16,10.9v0.5c-0.9,0.4-1.1,1.1-1.1,2.2v22.1c0,1.2,0.7,1.9,1.4,2.2V416.5z
			 M138.5,420.5v-27.4c-3.6-2.1-9-5.8-11.9-8.1l-0.5,0.3v27.2c3.8,2.1,8.8,5.8,12,8.2L138.5,420.5z"/>
		<path d="M113.1,412l-8.1,15.6c-3.1-2.7-7.7-4.6-13.8-4.6c-9.1,0-20.4,2.4-23.7,4.4l-1.1-1.2c3.6-3.1,7.3-11.2,7.3-20.9
			c0-10.3-5.8-15.1-5.8-25.3c0-10.4,4.7-16.2,13.3-20.6l1,0.9c-3.1,2.6-4.7,5.7-5,9.5l14.9-12.3c2.8,2.7,7.2,5.7,11.2,5.7
			c3,0,4.6-0.6,4.6-1.9c0-0.7-0.6-0.9-0.6-1.4c0-0.7,0.5-1,1.1-1c0.8,0,1.4,1,1.4,2c0,5.6-5.8,10.3-11.7,10.3c-2,0-3.6-0.2-5.1-0.6
			v42.6c0.9-0.1,1.7-0.2,2.3-0.2c5.6,0,10.6,2.4,11.9,2.4c2,0,2.7-1.4,4.2-4.4L113.1,412z M91.3,413.5v-43.4c-2.2-1-4.1-2.5-5.9-4.7
			l-8.3,6.7c0,12.5,6.5,18.1,6.5,28.2c0,7.1-5,14.4-8.8,18.1l0.3,0.1C80.2,415.7,86.8,414.1,91.3,413.5z"/>
	</g>
</g>
</svg>
