<?xml version="1.0" encoding="utf-8"?>
<!-- Generator: Adobe Illustrator 20.0.0, SVG Export Plug-In . SVG Version: 6.00 Build 0)  -->
<svg version="1.1" xmlns="http://www.w3.org/2000/svg" xmlns:xlink="http://www.w3.org/1999/xlink" x="0px" y="0px"
	 viewBox="0 0 800 800" style="enable-background:new 0 0 800 800;" xml:space="preserve">
<style type="text/css">
	.st0{fill-rule:evenodd;clip-rule:evenodd;fill:#231F20;}
	.st1{fill-rule:evenodd;clip-rule:evenodd;fill:#FFFFFF;}
	.st2{fill:#FFFFFF;}
</style>
<g id="Layer_1">
</g>
<g id="Layer_2">
	<g>
		<path class="st0" d="M141,436.2c0,0,0.3-0.8,0.4-1.3c0.1-0.5,0.2-1.8,0.2-1.8l0,0l0.2-34.2l0,0c0,0-0.2-2.7-0.2-4.3
			c0-2.2-0.9-3.8-0.9-3.8l0,0l20.2-9.4v9.2l0,0c0.4-0.4,7.4-9.3,18.7-8.2c11.2,1.2,11.5,8.3,11.7,8.2c0.5-0.1,7.4-9.4,18.2-8.2
			c9.9,1.1,11.5,7.3,11.5,9.6c0,1.2,0,41.8,0,41.8s0.2,1,0.2,1.1c0.4,1.1,0.4,1.1,0.4,1.1s-20.5,0.1-20.4,0c0,0,0.4-0.5,0.5-1
			c0.1-0.6,0.2-1.6,0.2-1.6s-0.1-32.5-0.3-33.5c-0.2-1.1-0.7-3.4-4-4c-4.4-0.7-6.1,4.6-6.1,4.6c0,2.8-0.4,33.3-0.4,33.3
			s0.1,0.8,0.3,1.4c0.4,1,0.4,1,0.4,1l0,0h-20.8l0,0c0,0,0.3-0.6,0.4-1.1c0.1-0.5,0.1-1.1,0.1-1.1s0.2-32.9,0-33.8
			c-0.2-0.8-0.9-4-4.4-4c-3.2,0-5.3,3.9-5.8,5.9c-0.2,1.2-0.3,31.8-0.3,31.8l0,0l0.3,1.2l0.4,1.1l0,0
			C161.5,436.2,141.1,436.3,141,436.2L141,436.2L141,436.2L141,436.2z"/>
		<path class="st0" d="M267.7,436c-2.2-0.4-4-1.2-4.6-1.5c-1.3-0.7-4.2-3.2-4.2-3.2s-0.3,0.1-1.1,0.5c-0.7,0.4-5.9,3.4-8.2,4.1
			c-4.6,1.5-9.7,1.3-13.2-0.1c-10.2-4-10.4-12.6-10.5-14.7c-0.1-2.1-0.4-11.1,8.2-15.9c6.6-3.7,15-4.2,15-4.2s-1.5-7.5-6.5-9.6
			c-5.7-2.4-11,0.6-11,0.6s0.1-8,0-8.4c0,0,7.1-2.5,13.4-2.4c6.4,0.1,10.1,1.1,12.4,2c2.3,1,8.7,4.4,10.9,14.3
			c2.2,9.8,3,16,3.5,19.1c0.5,3.1,1,7,2.8,9.3c1.8,2.3,3.9,1.7,4.2,1.8c0,0,0.1,8.3,0,8.6C278.9,436.2,269.9,436.4,267.7,436
			L267.7,436L267.7,436L267.7,436z M245.2,424.6c4,5.2,9.8,1.2,10.3,0.3c0,0-3.5-15.4-4.1-15.6C251.4,409.3,239.9,414.1,245.2,424.6
			L245.2,424.6L245.2,424.6L245.2,424.6z"/>
		<path class="st0" d="M282.1,436.2h21.7l0,0c0,0-0.3-0.4-0.4-0.6c-0.2-0.3-0.4-1.3-0.4-1.3s0-27,0-28.1c0-1.1,0.5-6,1.6-7.5
			c1.1-1.6,2.4-2.8,5.4-3.2c3-0.4,7.5,0.5,7.5,0.5s4.2-13.2,4.2-13.7c0,0-1.3-1.5-5.5-1.9c-4-0.3-7.1,2.1-8.9,3.8
			c-1.8,1.7-3.3,3.4-4.3,4.3l0,0v-7.8l-21.4,9.2l0,0c0,0,0.4,0.7,0.7,1.6c0.4,0.9,0.6,3.8,0.6,3.8l0,0l-0.2,38.9l-0.3,1.1
			L282.1,436.2L282.1,436.2L282.1,436.2z"/>
		<path class="st0" d="M321.9,436.2c0.4,0,21.7,0,21.7,0s-0.3-0.6-0.5-1.1c-0.1-0.1-0.2-0.9-0.2-1.5c0-0.9,0-52.1,0-52.9l0,0
			l-20.5,9l0.1,44.1l0,0c0,0,0.1,0.7-0.1,1.4C322.1,435.9,321.9,436.2,321.9,436.2L321.9,436.2L321.9,436.2L321.9,436.2z"/>
		<path class="st0" d="M332.7,380c6.5,0,11.4-4.1,11.4-8.6c0-4.5-4.9-8.3-11.4-8.3c-6.5,0-11.3,3.9-11.3,8.4
			C321.4,376,326.2,380,332.7,380L332.7,380L332.7,380L332.7,380z"/>
		<path class="st0" d="M380.2,426.8c9.3,0.7,13.2-2.8,13.2-2.8c0,0.8,0,8.4,0,9.1c-0.5,0.4-5.7,2.9-16,3.1
			c-10.3,0.2-14.7-2.6-15.8-3.1c-1.1-0.4-11.4-6.8-13.4-19c-2-12.2,3.5-21.1,3.5-21.1s5.4-10.2,19.1-12.3c13.8-2.1,21,4.6,23.8,9
			c4.4,6.7,6.2,17,6.2,17s-31.9,8.7-32,9.1C368.8,416.2,370.9,426,380.2,426.8L380.2,426.8L380.2,426.8L380.2,426.8z M366.9,407.8
			l13.7-3.9l0,0c0,0,0.8-14-7-13.5C365.7,391,366.8,407.8,366.9,407.8L366.9,407.8L366.9,407.8L366.9,407.8z"/>
		<path class="st0" d="M457.9,434l0.1-9.3l0,0c-0.3,0.1-3.6,2.3-7.8,2c-6.1-0.4-9.9-5.3-10.6-6.4c-0.7-1.2-3.4-6.5-3.7-12.6
			c-0.3-6.4,2-12.2,3.9-14.1c1.9-1.9,4.6-3.6,7.9-3.5c3.4,0.1,8.3,1.8,8.5,1.8l0,0l0.1-9.1l0,0c0,0-8.1-2.3-12.8-2.5
			c-11.6-0.5-18.6,6.4-19.9,7.8c-1.5,1.6-7.5,7.4-7.2,22.6c1.2,15.7,10.5,21.3,10.5,21.3s5.3,4.4,17,4.3
			C453.6,436.4,457.9,434,457.9,434L457.9,434L457.9,434L457.9,434z"/>
		<path class="st0" d="M462.4,436.1l21.4,0.1l0,0c0,0-0.3-0.5-0.4-0.8c0,0-0.3-0.9-0.3-1.7c-0.1-0.7-0.1-69.6-0.1-69.6
			c0.1-0.2-22,9.9-22,9.9c0.8,0.8,1.4,2,1.6,3.6l0,0l0.1,56.3l0,0c0,0,0,0.6-0.2,1.4C462.4,435.7,462.4,436.1,462.4,436.1
			L462.4,436.1L462.4,436.1L462.4,436.1z"/>
		<path class="st0" d="M544.4,436.2h21.8l0,0c0,0-0.3-0.6-0.4-0.9c0,0-0.3-1.1-0.3-1.5c0-0.7,0.1-52.2,0-52.9l0,0l-20.5,9.7l0,0
			c0,0.3,0,43.5,0,43.5l0,0l-0.1,1.1l0,0C544.8,435.4,544.4,436.2,544.4,436.2L544.4,436.2L544.4,436.2L544.4,436.2z"/>
		<path class="st0" d="M571.9,436.2h21.7l0,0c0,0-0.2-0.3-0.4-1c-0.1-0.2-0.2-1.4-0.2-1.4s0-26.6,0-27.7c0-1.1,0.4-5.9,1.4-7.5
			c1.1-1.6,2.4-2.8,5.4-3.2c3-0.4,7.4,0.4,7.4,0.4l0,0l4.1-13.4l0,0c0,0-0.8-1.8-5.2-2c-4-0.1-7.1,2.1-8.9,3.8
			c-1.8,1.7-4.2,4.3-4.2,4.3s0.1-8,0-8.1l0,0l-21.5,9.5l0,0c0,0,0.4,0.7,0.7,2c0.4,1.3,0.4,3.5,0.4,3.5l0,0l0.1,36.8l0,0
			c0,0,0,1.7-0.2,2.7C572.1,435.7,571.9,436.2,571.9,436.2L571.9,436.2L571.9,436.2L571.9,436.2z"/>
		<path class="st0" d="M639.2,426.7c9.3,0.7,13.2-3,13.2-3s0,8.5,0,9.4c-0.5,0.4-5.7,2.9-16,3.1c-10.3,0.2-14.7-2.6-15.8-3.1
			c-1.1-0.4-11.4-6.8-13.4-19c-2-12.2,3.5-21.1,3.5-21.1s5.4-10.2,19.1-12.3c13.3-2.1,20.5,5,23.8,9c3.3,4,6.1,16.7,5.6,17
			c-0.3,0.2-31.3,8.7-31.4,9C627.7,416.1,629.8,426,639.2,426.7L639.2,426.7L639.2,426.7L639.2,426.7z M626.3,407.7
			c0.7,0,13.1-3.5,13.7-3.9c0.5-0.4,0.8-14-7-13.5C625.1,390.8,625.5,407.7,626.3,407.7L626.3,407.7L626.3,407.7L626.3,407.7z"/>
		<path class="st0" d="M554.1,380.7c6.5,0,11.4-4.1,11.4-8.6c0-4.5-4.9-8.3-11.4-8.3c-6.5,0-11.3,3.9-11.3,8.4
			C542.8,376.7,547.6,380.7,554.1,380.7L554.1,380.7L554.1,380.7L554.1,380.7z"/>
		<path class="st0" d="M529.1,435.9c-2.2-0.4-4-1.2-4.6-1.5c-1.3-0.7-4.2-3.2-4.2-3.2s-0.3,0.1-1.1,0.5c-0.7,0.4-5.9,3.4-8.2,4.1
			c-4.6,1.5-9.7,1.3-13.2-0.1c-10.2-4-10.4-12.6-10.5-14.7c-0.1-2.1-0.4-11.1,8.2-15.9c6.6-3.7,15-4.2,15-4.2s-1.5-7.5-6.5-9.6
			c-5.7-2.4-11,0.6-11,0.6s0.1-8,0-8.4c0,0,7.1-2.5,13.4-2.4c6.4,0.1,10.1,1.1,12.4,2c2.3,1,8.7,4.4,10.9,14.3
			c2.2,9.8,3,16,3.5,19.1c0.5,3.1,1,7,2.8,9.3c1.8,2.3,3.9,1.7,4.2,1.8c0,0,0.1,8.3,0,8.6C540.4,436.1,531.4,436.3,529.1,435.9
			L529.1,435.9L529.1,435.9L529.1,435.9z M506.7,424.5c4,5.2,9.8,1.2,10.3,0.3c0,0-3.5-15.4-4.1-15.6
			C512.8,409.2,501.4,413.9,506.7,424.5L506.7,424.5L506.7,424.5L506.7,424.5z"/>
	</g>
</g>
</svg>
