<?xml version="1.0" encoding="utf-8"?>
<!-- Generator: Adobe Illustrator 20.0.0, SVG Export Plug-In . SVG Version: 6.00 Build 0)  -->
<svg version="1.1" xmlns="http://www.w3.org/2000/svg" xmlns:xlink="http://www.w3.org/1999/xlink" x="0px" y="0px"
	 viewBox="0 0 800 800" style="enable-background:new 0 0 800 800;" xml:space="preserve">
<style type="text/css">
	.st0{fill-rule:evenodd;clip-rule:evenodd;fill:#231F20;}
	.st1{fill-rule:evenodd;clip-rule:evenodd;fill:#FFFFFF;}
	.st2{fill:#FFFFFF;}
</style>
<g id="Layer_1">
</g>
<g id="Layer_2">
	<path class="st2" d="M212.1,283.8h9.4c8.5-0.2,11.5-5.4,11.5-18.4c0-11.8-4.1-18-11.5-18h-9.4V283.8z M464.4,333.7
		c0,9.7,2.4,17.1,9.2,17.1c7.6,0,12.2-10.3,12.2-34.6c0-26.6-4.1-35.8-11.3-36.1c-6.9-0.3-10.5,5.6-10.1,17.7V333.7z M596.8,281.1
		c-7.5,0-10.6,8.4-11.1,17.9c-0.2,3.2-0.2,3.4,0,5.8h22.1c0.2-2.4,0.2-2.6,0-5.8C607.4,289.5,604.2,281.1,596.8,281.1 M304.1,280.4
		c-7.5,0-10.8,9.1-11.3,18.6c-0.2,3.2-0.2,3.4,0,5.8h22.1c0.2-2.4,0.2-2.6,0-5.8C314.5,289.5,311.6,280.4,304.1,280.4 M375.8,316.1
		c0,19.3,3.5,34.9,12.2,35c8.9,0.1,12.2-15.7,12.2-35c0-19.3-3.5-34.9-12.2-35C379.5,281,375.8,296.8,375.8,316.1z M304.3,350.8
		c6.1,0,9.3-5.7,10.5-12.9l29.2,0c-1.5-7.3-1.7-8.8-1.8-14.5l-49.1,0c-0.2,2.2,0,5.9,0.2,9.3C293.7,342.2,296.8,350.9,304.3,350.8
		 M597,350.8c6.1,0,9.3-5.7,10.5-13h33.3c-4.2,50.7-74.2,51.1-80.4,10.9v26.2h-48.3v-26.4c-4.2,25.9-19,29.4-25.5,29.4
		c-5.4,0-18.8-4.5-23.7-18.1l0.5,14.8c0.1,9.2,6,15,12.2,15.9v21.4l-56.4,0l0-21.4c4.7-0.1,12.3-4.8,12.4-15.1v-38.8
		c-1.7,9.8-9,41.3-43.6,41.3c-34.4,0-42.1-33.3-43.6-38.2c-6.4,36.3-30.6,38.3-41.2,38.2c-19-0.2-30.4-13.3-30.7-13.6
		c-11.5-11.6-13.7-29.3-13.2-48.3c0-3.8,1-11.3,1.3-14.9c-12.3,13.2-23.7,11.6-37.3,12.1l-11.4,0v21.7c0,8.7,3.2,14,12.9,14v26.1
		H158v-25.6c9.8-0.1,13.1-5.8,13.1-14.5v-77.4c0-1.8-0.5-13.8-13-13.9v-25.7h72.2c13.6,0,23.3,4.1,29.8,9.3
		c12,9.5,14.5,25.8,15.4,37.9c18.4-16,62-19.6,69.3,28.3c7.9-36.5,34.8-39.3,41.1-39.3c11.3,0,30.6,6.8,36.9,25.3v-22.8h39.6v14.6
		C465.2,260,475,254,484.9,254c9.5-0.1,29.1,10.5,34.1,50.9v-53.7c0-7.7-4.8-11.7-12.5-11.7l0-21.4h46v86.9
		c4.2-38.5,25.7-50.8,43.8-50.8c18.4,0,31.4,10.2,38.1,23.3c8.5,16.8,7.9,34.5,7.4,46l-56,0c-0.2,2.2,0,5.9,0.2,9.3
		C586.4,342.2,589.5,350.9,597,350.8"/>
	<g>
		<path d="M230.8,335.4h-9.4v36.3h9.4c8.5-0.2,11.5-5.4,11.5-18.4C242.3,341.5,238.2,335.4,230.8,335.4z M237.5,353.7
			c0,7.8-1.2,13.3-6.5,13.3h-4.8v-26.9h4.8C238,340.1,237.5,352.8,237.5,353.7z"/>
		<path d="M655.3,416c0.7-8.8,2.9-32.7-7.3-52.4c-8-15.6-21.3-26.4-42.3-26.4c-18.5,0-31.5,9.4-39.1,21.1l0.1-57.1h-55.5v31.5
			c7.7,0,12.5,0.7,12.5,8.4v17.4c-5.3-11.6-17.2-22.2-31.7-21.3c-6.1,0.3-10.7,3-15.5,6.5v-4h-49v10.1c-8.4-8.6-18.5-12.5-31.5-12.5
			c-21,0-34.9,13.2-41.5,28.3c-3.7-10.8-16.2-28.3-40.5-28.3c-10,0-19.2,3.5-26,7.7c-1-12.4-6.6-26.5-15.8-33.8
			c-7.4-5.9-18.5-10.1-33.2-10.2h-76.2v35.3c9.9,0.1,13,2.3,13,12.1v71.9c0,9.4-2.4,12-13,12.1v36l76.2-0.1v-36
			c-10.5-0.1-12.9-2.7-12.9-12.1v-14.3l12.2,0.1c15.6,0.4,21-1.9,26-5.8c-0.9,6.2-0.5,17.8,0.1,22.2c2.7,22.5,9.5,28.5,16,35.1
			c8.9,9.1,21.2,13,32.6,13.1c31.3,0.2,39.6-24.3,41.3-28.3c10.5,24.6,31.3,28.4,43.3,28.3c23.8-0.2,33.3-11.3,38.7-21.2v12.2
			c-0.1,8.6-2,12.6-12.3,12.8l0,31h65.7v-31c-10-0.2-12-7.3-12.3-11.9c6.1,8,17.4,8.5,18.7,8.2c4.8,0.5,15.4-0.9,20.8-10.6v8.2h57.7
			v-11c8.3,9,20.5,13.3,31.9,13.3c18.9,0,46-10.4,48.5-49.5h-42.3c0,0.4,0,0.8-0.1,1.6c-0.3,5-2.4,11.4-6.3,11.4
			c-3.9,0-6-6.4-6.3-11.4c-0.1-1.7-0.4-5.4-0.3-6.7H655.3z M595.3,420.6c0.5,9.5,3.6,18.2,11.1,18.1c6.1,0,9.3-5.7,10.5-13h33.3
			c-4.2,50.7-74.2,51.1-80.4,10.9v26.2h-48.3v-26.4c-4.2,25.9-19,29.4-25.5,29.4c-5.4,0-18.8-4.5-23.7-18.1l0.5,14.8
			c0.1,9.2,6,15,12.2,15.9v21.4l-56.4,0l0-21.4c4.7-0.1,12.3-4.8,12.4-15.1v-38.8c-1.7,9.8-9,41.3-43.6,41.3
			c-34.4,0-42.1-33.3-43.6-38.2c-6.4,36.3-30.6,38.3-41.2,38.2c-19-0.2-30.4-13.3-30.7-13.6c-11.5-11.6-13.7-29.3-13.2-48.3
			c0-3.8,1-11.3,1.3-14.9c-12.3,13.2-23.7,11.6-37.3,12.1l-11.4,0v21.7c0,8.7,3.2,14,12.9,14v26.1h-66.9v-25.6
			c9.8-0.1,13.1-5.8,13.1-14.5v-77.4c0-1.8-0.5-13.8-13-13.9v-25.7h72.2c13.6,0,23.3,4.1,29.8,9.3c12,9.5,14.5,25.8,15.4,37.9
			c18.4-16,62-19.6,69.3,28.3c7.9-36.5,34.8-39.3,41.1-39.3c11.3,0,30.6,6.8,36.9,25.3v-22.8h39.6V359c2.9-11.1,12.7-17.1,22.6-17.1
			c9.5-0.1,29.1,10.5,34.1,50.9V339c0-7.7-4.8-11.7-12.5-11.7l0-21.4h46v86.9c4.2-38.5,25.7-50.8,43.8-50.8
			c18.4,0,31.4,10.2,38.1,23.3c8.5,16.8,7.9,34.5,7.4,46l-56,0C594.9,413.5,595.1,417.2,595.3,420.6z"/>
		<path d="M324.3,386.9c-0.5-9.5-3.4-18.7-10.8-18.6c-7.5,0-10.8,9.1-11.3,18.6c-0.2,3.2-0.2,3.4,0,5.8h22.1
			C324.5,390.3,324.5,390.2,324.3,386.9z M319.5,388h-12.6c-0.1-1.3-0.1-1.4,0-3.1c0.2-5,2.4-11.2,6.3-11.2c3.9,0,6,6.2,6.3,11.2
			C319.6,386.6,319.6,386.8,319.5,388z"/>
		<path d="M483.9,368c-6.9-0.3-10.5,5.6-10.1,17.7v35.8c0,9.7,2.4,17.1,9.2,17.1c7.6,0,12.2-10.3,12.2-34.6
			C495.2,377.5,491.1,368.3,483.9,368z M482.7,433.1c-3.4,0-4.1-8.5-4.1-15.3v-28.4c0-8.2,1-15.9,4.7-15.9c5,0,6.9,11.9,6.9,30.5
			C490.3,421.1,488,433.1,482.7,433.1z"/>
		<path d="M397.4,369c-8.5-0.1-12.2,15.7-12.2,35c0,19.3,3.5,34.9,12.2,35c8.9,0.1,12.2-15.7,12.2-35
			C409.6,384.7,406.1,369.1,397.4,369z M397.4,433.6c-4.2,0-7.7-13.3-7.7-29.6c0-16.4,3.4-29.6,7.7-29.6c4.2,0,7.7,13.3,7.7,29.6
			C405,420.3,401.6,433.6,397.4,433.6z"/>
		<path d="M302.4,411.3c-0.2,2.2,0,5.9,0.2,9.3c0.5,9.5,3.6,18.2,11.1,18.1c6.1,0,9.3-5.7,10.5-12.9l29.2,0
			c-1.5-7.3-1.7-8.8-1.8-14.5L302.4,411.3z M320,421c0,0.4,0,0.8-0.1,1.6c-0.3,5-2.4,11.4-6.3,11.4c-3.9,0-6-6.4-6.3-11.4
			c-0.1-1.7-0.4-5.4-0.3-6.7h40.1c0.1,2.5,0.1,2.5,0.4,5L320,421z"/>
		<path d="M617.2,386.9c-0.5-9.5-3.6-18-11.1-17.9c-7.5,0-10.6,8.4-11.1,17.9c-0.2,3.2-0.2,3.4,0,5.8h22.1
			C617.4,390.3,617.4,390.2,617.2,386.9z M612.4,388h-12.6c-0.1-1.3-0.1-1.2,0-2.9c0.3-5,2.4-11.4,6.3-11.4c3.9,0,6,6.4,6.3,11.4
			C612.4,386.8,612.5,386.8,612.4,388z"/>
	</g>
</g>
</svg>
