<?xml version="1.0" encoding="utf-8"?>
<!-- Generator: Adobe Illustrator 20.0.0, SVG Export Plug-In . SVG Version: 6.00 Build 0)  -->
<svg version="1.1" xmlns="http://www.w3.org/2000/svg" xmlns:xlink="http://www.w3.org/1999/xlink" x="0px" y="0px"
	 viewBox="0 0 800 800" style="enable-background:new 0 0 800 800;" xml:space="preserve">
<style type="text/css">
	.st0{fill-rule:evenodd;clip-rule:evenodd;fill:#231F20;}
	.st1{fill-rule:evenodd;clip-rule:evenodd;fill:#FFFFFF;}
	.st2{fill:#FFFFFF;}
</style>
<g id="Layer_1">
	<g>
		<path class="st0" d="M302.2,461.7c-13.9,0-27.2-7.8-35.8-18.4c-9.8-12.1-14.6-27.7-14.6-43.2c0-14.8,4.4-29.8,13.5-41.6
			c8.9-11.6,22.4-19.9,37.4-19.9c13.8,0,27,7.9,35.5,18.4c9.8,12.1,14.6,27.8,14.6,43.2c0,14.8-4.4,29.7-13.5,41.6
			C330.4,453.3,317,461.7,302.2,461.7L302.2,461.7z"/>
		<polygon class="st0" points="162.5,341.2 204.4,341.2 204.4,342.4 194.1,342.4 225.3,427.9 251.7,342.4 241.3,342.4 241.3,341.2 
			263.9,341.2 263.9,342.4 253.9,342.4 216.8,460.6 173.5,342.4 162.5,342.4 162.5,341.2 		"/>
		<path class="st0" d="M444.4,339.1v41.1h-0.9c-1.8-8.1-4.3-16-8.6-23.1c-5.2-8.3-13.4-17.7-24.1-17.7c-24.6,0-26.8,44.1-26.8,60.9
			c0,15.1,1.2,30.6,6.7,44.7c3.8,9.9,9.4,14.8,19.7,14.8c8.2,0,16.9-4.1,21.2-11.2c1.1-1.9,1.2-3.9,1.2-6v-0.3v-31.5h-10.8v-1.2
			h39.4v1.2H452v47.5h-0.8c-2.3-3.9-6-6.4-10.7-6.4c-3.4,0-6.7,1.2-9.7,2.8l-2.7,1.5c-6,2.7-11.8,4.6-18.5,4.6
			c-30.5,0-46.8-32.6-46.8-59.6c0-19.7,7.5-40.9,23.5-53.2c7.2-5.6,15.9-9.6,25.1-9.6c3.6,0,7.2,1.1,10.5,2.5l2.5,0.9
			c2.8,1,5.9,2,8.9,2c3.7,0,7.1-2.5,10-4.6H444.4L444.4,339.1z"/>
		<path class="st0" d="M456.1,341.2h42v1.2H487v91.2c0,14.3,14.7,23,27.6,23c13.9,0,25.5-9.6,25.5-23.8v-90.4h-13.2v-1.2h108.4v42.3
			h-0.8c-1.2-11.2-3.4-22.7-11.1-31.4c-7.8-8.8-18.4-9.7-29.3-9.7h-11.7v54.4c2.4,0.3,4.9,0.4,7.3,0.4c14.8,0,18.6-10.2,19.2-22.7
			h1.1v47.7h-1.1c-1.9-11.4-6.9-23.6-20.3-23.6c-2.1,0-4.2,0.1-6.3,0.3V457h17.6c9.1,0,18.2-4,24.7-10.3c5.5-5.4,9.3-12.5,10.7-20.1
			c0.7-4.3,1.1-8.6,1.3-12.9h0.9v44.5h-84.7V457h9.9V342.4h-20.8v90.7c0,18.8-17.8,27.1-34.5,27.1c-18.9,0-39.7-9.2-39.7-30.8v-87
			h-11.5V341.2L456.1,341.2z"/>
		<path class="st1" d="M331.5,400.2c0-17.1-6.1-59.8-29.2-59.8c-23.2,0-29.2,42.6-29.2,59.8c0,17.1,6.1,59.8,29.2,59.8
			C325.3,460,331.5,417.2,331.5,400.2L331.5,400.2z"/>
	</g>
</g>
<g id="Layer_2">
</g>
</svg>
